# File created by Blade
# Date/Time:  Tue Apr 07 20:29:34 2015
# Frame Rate: 120.000 fps
#------------------------------------------------------
:FULLY-SPECIFIED
:DEGREES
1607
root 5.180565 32.924568 -3.955437 -11.846895 -3.880019 -17.971916
Spine 11.779953 -3.176216 8.768774
Head 11.261200 -21.222170 9.798779
LeftShoulder -17.703694 44.827577 8.285879
LeftArm 51.227091 7.573894 -79.360810
LeftForeArm 1.844756 0.000000 25.700384
LeftHand 7.887701 0.000000 -2.617217
LeftHandThumb1 -26.253704 0.000000 33.147579
RightShoulder -6.893911 -8.004084 -13.256116
RightArm 8.311920 -3.308720 72.398850
RightForeArm 16.454633 0.000000 19.219176
RightHand 9.359950 -0.000000 10.810275
RightHandThumb1 -24.326973 -0.000000 -32.862282
LeftUpLeg 5.021084 5.589279 11.676459
LeftLeg 21.401065 -0.000000 -0.000000
LeftFoot -17.008746 10.550473 -14.087913
LeftToeBase -8.878599 -0.000000 0.000000
RightUpLeg -104.991770 -23.029409 18.371189
RightLeg 99.290406 -0.000000 -0.000000
RightFoot 39.807471 -22.350289 7.289790
RightToeBase 34.574963 -0.000000 -0.000000
1608
root 5.197980 32.891850 -3.980942 -11.735826 -3.902112 -18.043309
Spine 11.720690 -3.286515 8.916147
Head 11.336381 -21.512518 9.669826
LeftShoulder -17.645932 44.825383 8.359998
LeftArm 50.962345 7.479195 -79.579002
LeftForeArm 1.606225 0.000000 25.529275
LeftHand 7.748562 0.000000 -3.151767
LeftHandThumb1 -26.253704 0.000000 33.147579
RightShoulder -6.878863 -7.920107 -13.304302
RightArm 8.314471 -3.008664 72.457554
RightForeArm 16.702331 0.000000 19.306664
RightHand 9.361739 -0.000000 10.753639
RightHandThumb1 -24.326973 -0.000000 -32.862282
LeftUpLeg 4.906269 5.442536 11.539696
LeftLeg 21.316454 -0.000000 -0.000000
LeftFoot -17.302558 11.339715 -13.585044
LeftToeBase -8.877232 -0.000000 0.000000
RightUpLeg -104.954801 -23.508052 18.207876
RightLeg 99.520257 -0.000000 -0.000000
RightFoot 39.783791 -22.400152 7.235015
RightToeBase 34.726440 -0.000000 -0.000000
1609
root 5.208796 32.865160 -4.004428 -11.670389 -4.029329 -18.072046
Spine 11.741880 -3.301954 8.996107
Head 11.374963 -21.764080 9.646678
LeftShoulder -17.615561 44.809781 8.413541
LeftArm 50.707408 7.415574 -79.705210
LeftForeArm 1.747891 -0.000000 25.388142
LeftHand 7.637423 -0.000000 -2.750560
LeftHandThumb1 -26.253704 0.000000 33.147579
RightShoulder -6.900159 -7.791096 -13.270953
RightArm 8.347883 -2.824122 72.465978
RightForeArm 16.945955 -0.000000 19.358489
RightHand 9.439259 -0.000000 10.525137
RightHandThumb1 -24.326973 -0.000000 -32.862282
LeftUpLeg 4.873790 5.467255 11.455667
LeftLeg 21.228180 -0.000000 -0.000000
LeftFoot -17.547995 11.853172 -13.319074
LeftToeBase -8.868190 -0.000000 0.000000
RightUpLeg -104.752608 -23.848816 17.855708
RightLeg 99.717522 -0.000000 -0.000000
RightFoot 39.773139 -22.379404 7.180105
RightToeBase 34.926980 -0.000000 -0.000000
1610
root 5.216361 32.845459 -4.034006 -11.581999 -4.185292 -18.092296
Spine 11.759720 -3.302645 9.043480
Head 11.406768 -22.012917 9.665775
LeftShoulder -17.580689 44.769875 8.457999
LeftArm 50.417088 7.240258 -79.886156
LeftForeArm 1.715354 -0.000000 25.246009
LeftHand 7.589793 -0.000000 -3.140094
LeftHandThumb1 -26.253704 0.000000 33.147579
RightShoulder -6.909004 -7.633707 -13.173340
RightArm 8.359129 -2.737111 72.426150
RightForeArm 17.240287 0.000000 19.480448
RightHand 9.539974 0.000000 10.229892
RightHandThumb1 -24.326973 -0.000000 -32.862282
LeftUpLeg 4.790433 5.478572 11.414338
LeftLeg 21.231751 -0.000000 -0.000000
LeftFoot -17.764425 12.124674 -13.202521
LeftToeBase -8.657776 -0.000000 0.000000
RightUpLeg -104.460655 -24.110556 17.367533
RightLeg 99.843836 -0.000000 -0.000000
RightFoot 39.797049 -22.310444 7.099928
RightToeBase 34.934064 -0.000000 -0.000000
1611
root 5.221973 32.832817 -4.061219 -11.521735 -4.435845 -18.098778
Spine 11.818270 -3.233986 9.066788
Head 11.446038 -22.215180 9.760977
LeftShoulder -17.520693 44.731775 8.531030
LeftArm 50.124102 7.131768 -80.018031
LeftForeArm 1.685942 -0.000000 25.065940
LeftHand 7.519627 -0.000000 -3.062396
LeftHandThumb1 -26.253704 0.000000 33.147579
RightShoulder -6.916257 -7.507562 -12.999078
RightArm 8.417522 -2.671835 72.329481
RightForeArm 17.320482 -0.000000 19.631428
RightHand 9.591005 -0.000000 10.180455
RightHandThumb1 -24.326973 -0.000000 -32.862282
LeftUpLeg 4.742088 5.599875 11.436301
LeftLeg 21.306926 -0.000000 -0.000000
LeftFoot -17.977511 12.107516 -13.318508
LeftToeBase -8.433563 -0.000000 0.000000
RightUpLeg -104.060036 -24.256552 16.788923
RightLeg 99.927789 -0.000000 -0.000000
RightFoot 39.969005 -22.074175 6.805330
RightToeBase 34.463282 -0.000000 -0.000000
1612
root 5.223140 32.826727 -4.086815 -11.494263 -4.732270 -18.096695
Spine 11.926991 -3.139282 9.060624
Head 11.468587 -22.388838 9.894760
LeftShoulder -17.527432 44.747293 8.554428
LeftArm 49.932103 7.085144 -80.039052
LeftForeArm 1.735394 -0.000000 24.819546
LeftHand 7.583774 -0.000000 -2.982150
LeftHandThumb1 -26.253704 0.000000 33.147579
RightShoulder -6.958511 -7.403857 -12.803441
RightArm 8.515174 -2.693396 72.250990
RightForeArm 17.282772 -0.000000 19.841275
RightHand 9.628752 0.000000 10.054672
RightHandThumb1 -24.326973 -0.000000 -32.862282
LeftUpLeg 4.709658 5.779004 11.512638
LeftLeg 21.450142 -0.000000 -0.000000
LeftFoot -18.207527 11.846194 -13.702528
LeftToeBase -8.137925 -0.000000 0.000000
RightUpLeg -103.522794 -24.347088 16.052428
RightLeg 99.939155 -0.000000 -0.000000
RightFoot 40.075937 -21.934080 6.652955
RightToeBase 34.726978 -0.000000 -0.000000
1613
root 5.222903 32.826568 -4.113909 -11.463342 -5.036532 -18.130697
Spine 12.033092 -3.081866 9.094854
Head 11.522998 -22.530053 9.983378
LeftShoulder -17.568086 44.840714 8.530717
LeftArm 49.842837 7.057929 -80.004917
LeftForeArm 1.515717 -0.000000 24.516865
LeftHand 7.702772 -0.000000 -3.238448
LeftHandThumb1 -26.253704 0.000000 33.147579
RightShoulder -6.951274 -7.296187 -12.649621
RightArm 8.629584 -1.961091 72.455418
RightForeArm 16.443229 0.000000 19.970748
RightHand 9.665291 -0.000000 10.135393
RightHandThumb1 -24.326973 -0.000000 -32.862282
LeftUpLeg 4.643890 5.992592 11.650595
LeftLeg 21.661021 -0.000000 -0.000000
LeftFoot -18.407989 11.481526 -14.146866
LeftToeBase -7.747211 -0.000000 0.000000
RightUpLeg -102.896248 -24.428049 15.217858
RightLeg 99.918566 -0.000000 -0.000000
RightFoot 40.059205 -21.649015 6.621568
RightToeBase 34.883060 -0.000000 -0.000000
1614
root 5.219952 32.828387 -4.137258 -11.420428 -5.352424 -18.107792
Spine 12.102757 -3.020148 9.038226
Head 11.620138 -22.621829 10.113904
LeftShoulder -17.607400 44.982424 8.559760
LeftArm 49.793070 7.119197 -79.917109
LeftForeArm 1.597261 -0.000000 24.155094
LeftHand 7.856083 -0.000000 -3.001822
LeftHandThumb1 -26.253704 0.000000 33.147579
RightShoulder -6.946987 -7.233646 -12.494107
RightArm 8.717397 -1.963699 72.494811
RightForeArm 16.267345 -0.000000 20.246697
RightHand 9.709171 -0.000000 9.958620
RightHandThumb1 -24.326973 -0.000000 -32.862282
LeftUpLeg 4.572519 6.236866 11.740880
LeftLeg 21.863891 -0.000000 -0.000000
LeftFoot -18.563763 11.146239 -14.573491
LeftToeBase -7.611363 -0.000000 0.000000
RightUpLeg -102.212918 -24.483595 14.133919
RightLeg 99.857059 -0.000000 -0.000000
RightFoot 40.126776 -21.243685 6.964049
RightToeBase 34.985597 -0.000000 -0.000000
1615
root 5.194877 32.841721 -4.167697 -11.325152 -5.653828 -18.334349
Spine 12.138863 -3.027385 9.203495
Head 11.736282 -22.673281 10.265043
LeftShoulder -17.640728 45.102570 8.617179
LeftArm 49.745143 7.145495 -79.873515
LeftForeArm 1.545380 -0.000000 23.764536
LeftHand 7.824659 -0.000000 -3.399588
LeftHandThumb1 -26.253704 0.000000 33.147579
RightShoulder -6.982685 -7.207121 -12.325899
RightArm 8.856790 -2.516540 72.382583
RightForeArm 16.581211 -0.000000 20.564149
RightHand 9.783573 0.000000 9.798714
RightHandThumb1 -24.326973 -0.000000 -32.862282
LeftUpLeg 4.430376 6.518597 12.143427
LeftLeg 22.108562 -0.000000 -0.000000
LeftFoot -18.683462 10.691579 -14.941764
LeftToeBase -7.372822 -0.000000 0.000000
RightUpLeg -101.651968 -24.504628 13.590685
RightLeg 99.797992 -0.000000 -0.000000
RightFoot 40.135593 -21.044702 6.390868
RightToeBase 34.869513 -0.000000 -0.000000
1616
root 5.189066 32.847724 -4.196484 -11.211322 -5.885141 -18.365130
Spine 12.114825 -3.105090 9.176079
Head 11.903927 -22.694880 10.353024
LeftShoulder -17.718210 45.227154 8.683183
LeftArm 49.696701 7.259947 -79.817051
LeftForeArm 1.655212 0.000000 23.390605
LeftHand 7.862127 0.000000 -3.030465
LeftHandThumb1 -26.253704 0.000000 33.147579
RightShoulder -6.950329 -7.179902 -12.251236
RightArm 8.925551 -3.045053 72.364378
RightForeArm 16.955481 -0.000000 20.936478
RightHand 9.793105 -0.000000 9.560993
RightHandThumb1 -24.326973 -0.000000 -32.862282
LeftUpLeg 4.293157 6.678095 12.256137
LeftLeg 22.246419 -0.000000 -0.000000
LeftFoot -18.820266 10.275255 -15.577590
LeftToeBase -7.355181 -0.000000 0.000000
RightUpLeg -101.137129 -24.557343 12.761256
RightLeg 99.677074 -0.000000 -0.000000
RightFoot 40.278396 -20.901340 5.837455
RightToeBase 34.407770 -0.000000 -0.000000
1617
root 5.186047 32.851586 -4.223760 -11.080237 -6.056377 -18.374998
Spine 12.041703 -3.194510 9.146778
Head 12.094367 -22.729432 10.353195
LeftShoulder -17.654485 45.339700 8.846205
LeftArm 49.627299 7.399314 -79.714171
LeftForeArm 1.558959 0.000000 22.990455
LeftHand 7.690212 -0.000000 -3.628583
LeftHandThumb1 -26.253704 0.000000 33.147579
RightShoulder -6.972847 -7.227058 -12.274600
RightArm 9.066514 -3.086959 72.614783
RightForeArm 16.849181 -0.000000 21.192793
RightHand 9.809488 0.000000 9.543667
RightHandThumb1 -24.326973 -0.000000 -32.862282
LeftUpLeg 4.165552 6.816958 12.310752
LeftLeg 22.299911 -0.000000 -0.000000
LeftFoot -19.131494 10.114322 -15.817658
LeftToeBase -6.663155 -0.000000 0.000000
RightUpLeg -100.635059 -24.679599 11.820274
RightLeg 99.522821 -0.000000 -0.000000
RightFoot 40.282032 -20.867528 5.623263
RightToeBase 34.137349 -0.000000 -0.000000
1618
root 5.186872 32.855486 -4.247266 -10.948745 -6.183726 -18.457078
Spine 11.950854 -3.357234 9.212559
Head 12.303711 -22.740723 10.307846
LeftShoulder -17.613242 45.453045 8.985194
LeftArm 49.563274 7.521393 -79.686108
LeftForeArm 1.786293 0.000000 22.597911
LeftHand 7.634237 0.000000 -3.876588
LeftHandThumb1 -26.253704 0.000000 33.147579
RightShoulder -6.994338 -7.297137 -12.227683
RightArm 9.153214 -3.648322 72.564555
RightForeArm 17.336090 -0.000000 21.627202
RightHand 9.811074 0.000000 9.445988
RightHandThumb1 -24.326973 -0.000000 -32.862282
LeftUpLeg 4.095228 6.896984 12.403238
LeftLeg 22.240554 -0.000000 -0.000000
LeftFoot -19.237416 10.054403 -15.844692
LeftToeBase -6.534879 -0.000000 0.000000
RightUpLeg -100.134272 -24.883822 10.942993
RightLeg 99.370168 -0.000000 -0.000000
RightFoot 40.188716 -20.675460 5.399448
RightToeBase 34.173775 -0.000000 -0.000000
